<svg xmlns:xlink="http://www.w3.org/1999/xlink" width="554.98125pt" height="408.555469pt"
    viewBox="0 0 554.98125 408.555469" xmlns="http://www.w3.org/2000/svg" version="1.1">
    <metadata>
        <rdf:RDF xmlns:dc="http://purl.org/dc/elements/1.1/" xmlns:cc="http://creativecommons.org/ns#"
            xmlns:rdf="http://www.w3.org/1999/02/22-rdf-syntax-ns#">
            <cc:Work>
                <dc:type rdf:resource="http://purl.org/dc/dcmitype/StillImage" />
                <dc:date>2023-02-20T20:11:12.888722</dc:date>
                <dc:format>image/svg+xml</dc:format>
                <dc:creator>
                    <cc:Agent>
                        <dc:title>Matplotlib v3.7.0, https://matplotlib.org/</dc:title>
                    </cc:Agent>
                </dc:creator>
            </cc:Work>
        </rdf:RDF>
    </metadata>
    <defs>
        <style type="text/css">
            * {
                stroke-linejoin: round;
                stroke-linecap: butt;
            }
        </style>
    </defs>
    <g id="figure_1">
        <g id="patch_1">
            <path d="M 0 408.555469 
L 554.98125 408.555469 
L 554.98125 0 
L 0 0 
L 0 408.555469 
z
" style="fill: none" />
        </g>
        <g id="axes_1">
            <g id="patch_2">
                <path d="M 43.78125 370.999219 
L 547.78125 370.999219 
L 547.78125 10.999219 
L 43.78125 10.999219 
L 43.78125 370.999219 
z
" style="fill: none" />
            </g>
            <g id="matplotlib.axis_1">
                <g id="xtick_1">
                    <g id="line2d_1">
                        <defs>
                            <path id="ma6d665e270" d="M 0 0 
L 0 3.5 
" style="stroke: #000000; stroke-width: 0.8" />
                        </defs>
                        <g>
                            <use xlink:href="#ma6d665e270" x="66.690341" y="370.999219"
                                style="stroke: #000000; stroke-width: 0.8" />
                        </g>
                    </g>
                    <g id="text_1">
                        <!-- 0 -->
                        <g transform="translate(63.509091 385.597656) scale(0.1 -0.1)">
                            <defs>
                                <path id="DejaVuSans-30" d="M 2034 4250 
Q 1547 4250 1301 3770 
Q 1056 3291 1056 2328 
Q 1056 1369 1301 889 
Q 1547 409 2034 409 
Q 2525 409 2770 889 
Q 3016 1369 3016 2328 
Q 3016 3291 2770 3770 
Q 2525 4250 2034 4250 
z
M 2034 4750 
Q 2819 4750 3233 4129 
Q 3647 3509 3647 2328 
Q 3647 1150 3233 529 
Q 2819 -91 2034 -91 
Q 1250 -91 836 529 
Q 422 1150 422 2328 
Q 422 3509 836 4129 
Q 1250 4750 2034 4750 
z
" transform="scale(0.015625)" />
                            </defs>
                            <use xlink:href="#DejaVuSans-30" />
                        </g>
                    </g>
                </g>
                <g id="xtick_2">
                    <g id="line2d_2">
                        <g>
                            <use xlink:href="#ma6d665e270" x="127.45716" y="370.999219"
                                style="stroke: #000000; stroke-width: 0.8" />
                        </g>
                    </g>
                    <g id="text_2">
                        <!-- 100 -->
                        <g transform="translate(117.91341 385.597656) scale(0.1 -0.1)">
                            <defs>
                                <path id="DejaVuSans-31" d="M 794 531 
L 1825 531 
L 1825 4091 
L 703 3866 
L 703 4441 
L 1819 4666 
L 2450 4666 
L 2450 531 
L 3481 531 
L 3481 0 
L 794 0 
L 794 531 
z
" transform="scale(0.015625)" />
                            </defs>
                            <use xlink:href="#DejaVuSans-31" />
                            <use xlink:href="#DejaVuSans-30" x="63.623047" />
                            <use xlink:href="#DejaVuSans-30" x="127.246094" />
                        </g>
                    </g>
                </g>
                <g id="xtick_3">
                    <g id="line2d_3">
                        <g>
                            <use xlink:href="#ma6d665e270" x="188.22398" y="370.999219"
                                style="stroke: #000000; stroke-width: 0.8" />
                        </g>
                    </g>
                    <g id="text_3">
                        <!-- 200 -->
                        <g transform="translate(178.68023 385.597656) scale(0.1 -0.1)">
                            <defs>
                                <path id="DejaVuSans-32" d="M 1228 531 
L 3431 531 
L 3431 0 
L 469 0 
L 469 531 
Q 828 903 1448 1529 
Q 2069 2156 2228 2338 
Q 2531 2678 2651 2914 
Q 2772 3150 2772 3378 
Q 2772 3750 2511 3984 
Q 2250 4219 1831 4219 
Q 1534 4219 1204 4116 
Q 875 4013 500 3803 
L 500 4441 
Q 881 4594 1212 4672 
Q 1544 4750 1819 4750 
Q 2544 4750 2975 4387 
Q 3406 4025 3406 3419 
Q 3406 3131 3298 2873 
Q 3191 2616 2906 2266 
Q 2828 2175 2409 1742 
Q 1991 1309 1228 531 
z
" transform="scale(0.015625)" />
                            </defs>
                            <use xlink:href="#DejaVuSans-32" />
                            <use xlink:href="#DejaVuSans-30" x="63.623047" />
                            <use xlink:href="#DejaVuSans-30" x="127.246094" />
                        </g>
                    </g>
                </g>
                <g id="xtick_4">
                    <g id="line2d_4">
                        <g>
                            <use xlink:href="#ma6d665e270" x="248.990799" y="370.999219"
                                style="stroke: #000000; stroke-width: 0.8" />
                        </g>
                    </g>
                    <g id="text_4">
                        <!-- 300 -->
                        <g transform="translate(239.447049 385.597656) scale(0.1 -0.1)">
                            <defs>
                                <path id="DejaVuSans-33" d="M 2597 2516 
Q 3050 2419 3304 2112 
Q 3559 1806 3559 1356 
Q 3559 666 3084 287 
Q 2609 -91 1734 -91 
Q 1441 -91 1130 -33 
Q 819 25 488 141 
L 488 750 
Q 750 597 1062 519 
Q 1375 441 1716 441 
Q 2309 441 2620 675 
Q 2931 909 2931 1356 
Q 2931 1769 2642 2001 
Q 2353 2234 1838 2234 
L 1294 2234 
L 1294 2753 
L 1863 2753 
Q 2328 2753 2575 2939 
Q 2822 3125 2822 3475 
Q 2822 3834 2567 4026 
Q 2313 4219 1838 4219 
Q 1578 4219 1281 4162 
Q 984 4106 628 3988 
L 628 4550 
Q 988 4650 1302 4700 
Q 1616 4750 1894 4750 
Q 2613 4750 3031 4423 
Q 3450 4097 3450 3541 
Q 3450 3153 3228 2886 
Q 3006 2619 2597 2516 
z
" transform="scale(0.015625)" />
                            </defs>
                            <use xlink:href="#DejaVuSans-33" />
                            <use xlink:href="#DejaVuSans-30" x="63.623047" />
                            <use xlink:href="#DejaVuSans-30" x="127.246094" />
                        </g>
                    </g>
                </g>
                <g id="xtick_5">
                    <g id="line2d_5">
                        <g>
                            <use xlink:href="#ma6d665e270" x="309.757618" y="370.999219"
                                style="stroke: #000000; stroke-width: 0.8" />
                        </g>
                    </g>
                    <g id="text_5">
                        <!-- 400 -->
                        <g transform="translate(300.213868 385.597656) scale(0.1 -0.1)">
                            <defs>
                                <path id="DejaVuSans-34" d="M 2419 4116 
L 825 1625 
L 2419 1625 
L 2419 4116 
z
M 2253 4666 
L 3047 4666 
L 3047 1625 
L 3713 1625 
L 3713 1100 
L 3047 1100 
L 3047 0 
L 2419 0 
L 2419 1100 
L 313 1100 
L 313 1709 
L 2253 4666 
z
" transform="scale(0.015625)" />
                            </defs>
                            <use xlink:href="#DejaVuSans-34" />
                            <use xlink:href="#DejaVuSans-30" x="63.623047" />
                            <use xlink:href="#DejaVuSans-30" x="127.246094" />
                        </g>
                    </g>
                </g>
                <g id="xtick_6">
                    <g id="line2d_6">
                        <g>
                            <use xlink:href="#ma6d665e270" x="370.524438" y="370.999219"
                                style="stroke: #000000; stroke-width: 0.8" />
                        </g>
                    </g>
                    <g id="text_6">
                        <!-- 500 -->
                        <g transform="translate(360.980688 385.597656) scale(0.1 -0.1)">
                            <defs>
                                <path id="DejaVuSans-35" d="M 691 4666 
L 3169 4666 
L 3169 4134 
L 1269 4134 
L 1269 2991 
Q 1406 3038 1543 3061 
Q 1681 3084 1819 3084 
Q 2600 3084 3056 2656 
Q 3513 2228 3513 1497 
Q 3513 744 3044 326 
Q 2575 -91 1722 -91 
Q 1428 -91 1123 -41 
Q 819 9 494 109 
L 494 744 
Q 775 591 1075 516 
Q 1375 441 1709 441 
Q 2250 441 2565 725 
Q 2881 1009 2881 1497 
Q 2881 1984 2565 2268 
Q 2250 2553 1709 2553 
Q 1456 2553 1204 2497 
Q 953 2441 691 2322 
L 691 4666 
z
" transform="scale(0.015625)" />
                            </defs>
                            <use xlink:href="#DejaVuSans-35" />
                            <use xlink:href="#DejaVuSans-30" x="63.623047" />
                            <use xlink:href="#DejaVuSans-30" x="127.246094" />
                        </g>
                    </g>
                </g>
                <g id="xtick_7">
                    <g id="line2d_7">
                        <g>
                            <use xlink:href="#ma6d665e270" x="431.291257" y="370.999219"
                                style="stroke: #000000; stroke-width: 0.8" />
                        </g>
                    </g>
                    <g id="text_7">
                        <!-- 600 -->
                        <g transform="translate(421.747507 385.597656) scale(0.1 -0.1)">
                            <defs>
                                <path id="DejaVuSans-36" d="M 2113 2584 
Q 1688 2584 1439 2293 
Q 1191 2003 1191 1497 
Q 1191 994 1439 701 
Q 1688 409 2113 409 
Q 2538 409 2786 701 
Q 3034 994 3034 1497 
Q 3034 2003 2786 2293 
Q 2538 2584 2113 2584 
z
M 3366 4563 
L 3366 3988 
Q 3128 4100 2886 4159 
Q 2644 4219 2406 4219 
Q 1781 4219 1451 3797 
Q 1122 3375 1075 2522 
Q 1259 2794 1537 2939 
Q 1816 3084 2150 3084 
Q 2853 3084 3261 2657 
Q 3669 2231 3669 1497 
Q 3669 778 3244 343 
Q 2819 -91 2113 -91 
Q 1303 -91 875 529 
Q 447 1150 447 2328 
Q 447 3434 972 4092 
Q 1497 4750 2381 4750 
Q 2619 4750 2861 4703 
Q 3103 4656 3366 4563 
z
" transform="scale(0.015625)" />
                            </defs>
                            <use xlink:href="#DejaVuSans-36" />
                            <use xlink:href="#DejaVuSans-30" x="63.623047" />
                            <use xlink:href="#DejaVuSans-30" x="127.246094" />
                        </g>
                    </g>
                </g>
                <g id="xtick_8">
                    <g id="line2d_8">
                        <g>
                            <use xlink:href="#ma6d665e270" x="492.058077" y="370.999219"
                                style="stroke: #000000; stroke-width: 0.8" />
                        </g>
                    </g>
                    <g id="text_8">
                        <!-- 700 -->
                        <g transform="translate(482.514327 385.597656) scale(0.1 -0.1)">
                            <defs>
                                <path id="DejaVuSans-37" d="M 525 4666 
L 3525 4666 
L 3525 4397 
L 1831 0 
L 1172 0 
L 2766 4134 
L 525 4134 
L 525 4666 
z
" transform="scale(0.015625)" />
                            </defs>
                            <use xlink:href="#DejaVuSans-37" />
                            <use xlink:href="#DejaVuSans-30" x="63.623047" />
                            <use xlink:href="#DejaVuSans-30" x="127.246094" />
                        </g>
                    </g>
                </g>
                <g id="text_9">
                    <!-- frames -->
                    <g transform="translate(278.35 399.275781) scale(0.1 -0.1)">
                        <defs>
                            <path id="DejaVuSans-66" d="M 2375 4863 
L 2375 4384 
L 1825 4384 
Q 1516 4384 1395 4259 
Q 1275 4134 1275 3809 
L 1275 3500 
L 2222 3500 
L 2222 3053 
L 1275 3053 
L 1275 0 
L 697 0 
L 697 3053 
L 147 3053 
L 147 3500 
L 697 3500 
L 697 3744 
Q 697 4328 969 4595 
Q 1241 4863 1831 4863 
L 2375 4863 
z
" transform="scale(0.015625)" />
                            <path id="DejaVuSans-72" d="M 2631 2963 
Q 2534 3019 2420 3045 
Q 2306 3072 2169 3072 
Q 1681 3072 1420 2755 
Q 1159 2438 1159 1844 
L 1159 0 
L 581 0 
L 581 3500 
L 1159 3500 
L 1159 2956 
Q 1341 3275 1631 3429 
Q 1922 3584 2338 3584 
Q 2397 3584 2469 3576 
Q 2541 3569 2628 3553 
L 2631 2963 
z
" transform="scale(0.015625)" />
                            <path id="DejaVuSans-61" d="M 2194 1759 
Q 1497 1759 1228 1600 
Q 959 1441 959 1056 
Q 959 750 1161 570 
Q 1363 391 1709 391 
Q 2188 391 2477 730 
Q 2766 1069 2766 1631 
L 2766 1759 
L 2194 1759 
z
M 3341 1997 
L 3341 0 
L 2766 0 
L 2766 531 
Q 2569 213 2275 61 
Q 1981 -91 1556 -91 
Q 1019 -91 701 211 
Q 384 513 384 1019 
Q 384 1609 779 1909 
Q 1175 2209 1959 2209 
L 2766 2209 
L 2766 2266 
Q 2766 2663 2505 2880 
Q 2244 3097 1772 3097 
Q 1472 3097 1187 3025 
Q 903 2953 641 2809 
L 641 3341 
Q 956 3463 1253 3523 
Q 1550 3584 1831 3584 
Q 2591 3584 2966 3190 
Q 3341 2797 3341 1997 
z
" transform="scale(0.015625)" />
                            <path id="DejaVuSans-6d" d="M 3328 2828 
Q 3544 3216 3844 3400 
Q 4144 3584 4550 3584 
Q 5097 3584 5394 3201 
Q 5691 2819 5691 2113 
L 5691 0 
L 5113 0 
L 5113 2094 
Q 5113 2597 4934 2840 
Q 4756 3084 4391 3084 
Q 3944 3084 3684 2787 
Q 3425 2491 3425 1978 
L 3425 0 
L 2847 0 
L 2847 2094 
Q 2847 2600 2669 2842 
Q 2491 3084 2119 3084 
Q 1678 3084 1418 2786 
Q 1159 2488 1159 1978 
L 1159 0 
L 581 0 
L 581 3500 
L 1159 3500 
L 1159 2956 
Q 1356 3278 1631 3431 
Q 1906 3584 2284 3584 
Q 2666 3584 2933 3390 
Q 3200 3197 3328 2828 
z
" transform="scale(0.015625)" />
                            <path id="DejaVuSans-65" d="M 3597 1894 
L 3597 1613 
L 953 1613 
Q 991 1019 1311 708 
Q 1631 397 2203 397 
Q 2534 397 2845 478 
Q 3156 559 3463 722 
L 3463 178 
Q 3153 47 2828 -22 
Q 2503 -91 2169 -91 
Q 1331 -91 842 396 
Q 353 884 353 1716 
Q 353 2575 817 3079 
Q 1281 3584 2069 3584 
Q 2775 3584 3186 3129 
Q 3597 2675 3597 1894 
z
M 3022 2063 
Q 3016 2534 2758 2815 
Q 2500 3097 2075 3097 
Q 1594 3097 1305 2825 
Q 1016 2553 972 2059 
L 3022 2063 
z
" transform="scale(0.015625)" />
                            <path id="DejaVuSans-73" d="M 2834 3397 
L 2834 2853 
Q 2591 2978 2328 3040 
Q 2066 3103 1784 3103 
Q 1356 3103 1142 2972 
Q 928 2841 928 2578 
Q 928 2378 1081 2264 
Q 1234 2150 1697 2047 
L 1894 2003 
Q 2506 1872 2764 1633 
Q 3022 1394 3022 966 
Q 3022 478 2636 193 
Q 2250 -91 1575 -91 
Q 1294 -91 989 -36 
Q 684 19 347 128 
L 347 722 
Q 666 556 975 473 
Q 1284 391 1588 391 
Q 1994 391 2212 530 
Q 2431 669 2431 922 
Q 2431 1156 2273 1281 
Q 2116 1406 1581 1522 
L 1381 1569 
Q 847 1681 609 1914 
Q 372 2147 372 2553 
Q 372 3047 722 3315 
Q 1072 3584 1716 3584 
Q 2034 3584 2315 3537 
Q 2597 3491 2834 3397 
z
" transform="scale(0.015625)" />
                        </defs>
                        <use xlink:href="#DejaVuSans-66" />
                        <use xlink:href="#DejaVuSans-72" x="35.205078" />
                        <use xlink:href="#DejaVuSans-61" x="76.318359" />
                        <use xlink:href="#DejaVuSans-6d" x="137.597656" />
                        <use xlink:href="#DejaVuSans-65" x="235.009766" />
                        <use xlink:href="#DejaVuSans-73" x="296.533203" />
                    </g>
                </g>
            </g>
            <g id="matplotlib.axis_2">
                <g id="ytick_1">
                    <g id="line2d_9">
                        <defs>
                            <path id="m90b3824870" d="M 0 0 
L -3.5 0 
" style="stroke: #000000; stroke-width: 0.8" />
                        </defs>
                        <g>
                            <use xlink:href="#m90b3824870" x="43.78125" y="370.999219"
                                style="stroke: #000000; stroke-width: 0.8" />
                        </g>
                    </g>
                    <g id="text_10">
                        <!-- 0.0 -->
                        <g transform="translate(20.878125 374.798437) scale(0.1 -0.1)">
                            <defs>
                                <path id="DejaVuSans-2e" d="M 684 794 
L 1344 794 
L 1344 0 
L 684 0 
L 684 794 
z
" transform="scale(0.015625)" />
                            </defs>
                            <use xlink:href="#DejaVuSans-30" />
                            <use xlink:href="#DejaVuSans-2e" x="63.623047" />
                            <use xlink:href="#DejaVuSans-30" x="95.410156" />
                        </g>
                    </g>
                </g>
                <g id="ytick_2">
                    <g id="line2d_10">
                        <g>
                            <use xlink:href="#m90b3824870" x="43.78125" y="298.999219"
                                style="stroke: #000000; stroke-width: 0.8" />
                        </g>
                    </g>
                    <g id="text_11">
                        <!-- 0.2 -->
                        <g transform="translate(20.878125 302.798437) scale(0.1 -0.1)">
                            <use xlink:href="#DejaVuSans-30" />
                            <use xlink:href="#DejaVuSans-2e" x="63.623047" />
                            <use xlink:href="#DejaVuSans-32" x="95.410156" />
                        </g>
                    </g>
                </g>
                <g id="ytick_3">
                    <g id="line2d_11">
                        <g>
                            <use xlink:href="#m90b3824870" x="43.78125" y="226.999219"
                                style="stroke: #000000; stroke-width: 0.8" />
                        </g>
                    </g>
                    <g id="text_12">
                        <!-- 0.4 -->
                        <g transform="translate(20.878125 230.798437) scale(0.1 -0.1)">
                            <use xlink:href="#DejaVuSans-30" />
                            <use xlink:href="#DejaVuSans-2e" x="63.623047" />
                            <use xlink:href="#DejaVuSans-34" x="95.410156" />
                        </g>
                    </g>
                </g>
                <g id="ytick_4">
                    <g id="line2d_12">
                        <g>
                            <use xlink:href="#m90b3824870" x="43.78125" y="154.999219"
                                style="stroke: #000000; stroke-width: 0.8" />
                        </g>
                    </g>
                    <g id="text_13">
                        <!-- 0.6 -->
                        <g transform="translate(20.878125 158.798437) scale(0.1 -0.1)">
                            <use xlink:href="#DejaVuSans-30" />
                            <use xlink:href="#DejaVuSans-2e" x="63.623047" />
                            <use xlink:href="#DejaVuSans-36" x="95.410156" />
                        </g>
                    </g>
                </g>
                <g id="ytick_5">
                    <g id="line2d_13">
                        <g>
                            <use xlink:href="#m90b3824870" x="43.78125" y="82.999219"
                                style="stroke: #000000; stroke-width: 0.8" />
                        </g>
                    </g>
                    <g id="text_14">
                        <!-- 0.8 -->
                        <g transform="translate(20.878125 86.798438) scale(0.1 -0.1)">
                            <defs>
                                <path id="DejaVuSans-38" d="M 2034 2216 
Q 1584 2216 1326 1975 
Q 1069 1734 1069 1313 
Q 1069 891 1326 650 
Q 1584 409 2034 409 
Q 2484 409 2743 651 
Q 3003 894 3003 1313 
Q 3003 1734 2745 1975 
Q 2488 2216 2034 2216 
z
M 1403 2484 
Q 997 2584 770 2862 
Q 544 3141 544 3541 
Q 544 4100 942 4425 
Q 1341 4750 2034 4750 
Q 2731 4750 3128 4425 
Q 3525 4100 3525 3541 
Q 3525 3141 3298 2862 
Q 3072 2584 2669 2484 
Q 3125 2378 3379 2068 
Q 3634 1759 3634 1313 
Q 3634 634 3220 271 
Q 2806 -91 2034 -91 
Q 1263 -91 848 271 
Q 434 634 434 1313 
Q 434 1759 690 2068 
Q 947 2378 1403 2484 
z
M 1172 3481 
Q 1172 3119 1398 2916 
Q 1625 2713 2034 2713 
Q 2441 2713 2670 2916 
Q 2900 3119 2900 3481 
Q 2900 3844 2670 4047 
Q 2441 4250 2034 4250 
Q 1625 4250 1398 4047 
Q 1172 3844 1172 3481 
z
" transform="scale(0.015625)" />
                            </defs>
                            <use xlink:href="#DejaVuSans-30" />
                            <use xlink:href="#DejaVuSans-2e" x="63.623047" />
                            <use xlink:href="#DejaVuSans-38" x="95.410156" />
                        </g>
                    </g>
                </g>
                <g id="ytick_6">
                    <g id="line2d_14">
                        <g>
                            <use xlink:href="#m90b3824870" x="43.78125" y="10.999219"
                                style="stroke: #000000; stroke-width: 0.8" />
                        </g>
                    </g>
                    <g id="text_15">
                        <!-- 1.0 -->
                        <g transform="translate(20.878125 14.798438) scale(0.1 -0.1)">
                            <use xlink:href="#DejaVuSans-31" />
                            <use xlink:href="#DejaVuSans-2e" x="63.623047" />
                            <use xlink:href="#DejaVuSans-30" x="95.410156" />
                        </g>
                    </g>
                </g>
                <g id="text_16">
                    <!-- Expected average overlap -->
                    <g transform="translate(14.798438 256.755469) rotate(-90) scale(0.1 -0.1)">
                        <defs>
                            <path id="DejaVuSans-45" d="M 628 4666 
L 3578 4666 
L 3578 4134 
L 1259 4134 
L 1259 2753 
L 3481 2753 
L 3481 2222 
L 1259 2222 
L 1259 531 
L 3634 531 
L 3634 0 
L 628 0 
L 628 4666 
z
" transform="scale(0.015625)" />
                            <path id="DejaVuSans-78" d="M 3513 3500 
L 2247 1797 
L 3578 0 
L 2900 0 
L 1881 1375 
L 863 0 
L 184 0 
L 1544 1831 
L 300 3500 
L 978 3500 
L 1906 2253 
L 2834 3500 
L 3513 3500 
z
" transform="scale(0.015625)" />
                            <path id="DejaVuSans-70" d="M 1159 525 
L 1159 -1331 
L 581 -1331 
L 581 3500 
L 1159 3500 
L 1159 2969 
Q 1341 3281 1617 3432 
Q 1894 3584 2278 3584 
Q 2916 3584 3314 3078 
Q 3713 2572 3713 1747 
Q 3713 922 3314 415 
Q 2916 -91 2278 -91 
Q 1894 -91 1617 61 
Q 1341 213 1159 525 
z
M 3116 1747 
Q 3116 2381 2855 2742 
Q 2594 3103 2138 3103 
Q 1681 3103 1420 2742 
Q 1159 2381 1159 1747 
Q 1159 1113 1420 752 
Q 1681 391 2138 391 
Q 2594 391 2855 752 
Q 3116 1113 3116 1747 
z
" transform="scale(0.015625)" />
                            <path id="DejaVuSans-63" d="M 3122 3366 
L 3122 2828 
Q 2878 2963 2633 3030 
Q 2388 3097 2138 3097 
Q 1578 3097 1268 2742 
Q 959 2388 959 1747 
Q 959 1106 1268 751 
Q 1578 397 2138 397 
Q 2388 397 2633 464 
Q 2878 531 3122 666 
L 3122 134 
Q 2881 22 2623 -34 
Q 2366 -91 2075 -91 
Q 1284 -91 818 406 
Q 353 903 353 1747 
Q 353 2603 823 3093 
Q 1294 3584 2113 3584 
Q 2378 3584 2631 3529 
Q 2884 3475 3122 3366 
z
" transform="scale(0.015625)" />
                            <path id="DejaVuSans-74" d="M 1172 4494 
L 1172 3500 
L 2356 3500 
L 2356 3053 
L 1172 3053 
L 1172 1153 
Q 1172 725 1289 603 
Q 1406 481 1766 481 
L 2356 481 
L 2356 0 
L 1766 0 
Q 1100 0 847 248 
Q 594 497 594 1153 
L 594 3053 
L 172 3053 
L 172 3500 
L 594 3500 
L 594 4494 
L 1172 4494 
z
" transform="scale(0.015625)" />
                            <path id="DejaVuSans-64" d="M 2906 2969 
L 2906 4863 
L 3481 4863 
L 3481 0 
L 2906 0 
L 2906 525 
Q 2725 213 2448 61 
Q 2172 -91 1784 -91 
Q 1150 -91 751 415 
Q 353 922 353 1747 
Q 353 2572 751 3078 
Q 1150 3584 1784 3584 
Q 2172 3584 2448 3432 
Q 2725 3281 2906 2969 
z
M 947 1747 
Q 947 1113 1208 752 
Q 1469 391 1925 391 
Q 2381 391 2643 752 
Q 2906 1113 2906 1747 
Q 2906 2381 2643 2742 
Q 2381 3103 1925 3103 
Q 1469 3103 1208 2742 
Q 947 2381 947 1747 
z
" transform="scale(0.015625)" />
                            <path id="DejaVuSans-20" transform="scale(0.015625)" />
                            <path id="DejaVuSans-76" d="M 191 3500 
L 800 3500 
L 1894 563 
L 2988 3500 
L 3597 3500 
L 2284 0 
L 1503 0 
L 191 3500 
z
" transform="scale(0.015625)" />
                            <path id="DejaVuSans-67" d="M 2906 1791 
Q 2906 2416 2648 2759 
Q 2391 3103 1925 3103 
Q 1463 3103 1205 2759 
Q 947 2416 947 1791 
Q 947 1169 1205 825 
Q 1463 481 1925 481 
Q 2391 481 2648 825 
Q 2906 1169 2906 1791 
z
M 3481 434 
Q 3481 -459 3084 -895 
Q 2688 -1331 1869 -1331 
Q 1566 -1331 1297 -1286 
Q 1028 -1241 775 -1147 
L 775 -588 
Q 1028 -725 1275 -790 
Q 1522 -856 1778 -856 
Q 2344 -856 2625 -561 
Q 2906 -266 2906 331 
L 2906 616 
Q 2728 306 2450 153 
Q 2172 0 1784 0 
Q 1141 0 747 490 
Q 353 981 353 1791 
Q 353 2603 747 3093 
Q 1141 3584 1784 3584 
Q 2172 3584 2450 3431 
Q 2728 3278 2906 2969 
L 2906 3500 
L 3481 3500 
L 3481 434 
z
" transform="scale(0.015625)" />
                            <path id="DejaVuSans-6f" d="M 1959 3097 
Q 1497 3097 1228 2736 
Q 959 2375 959 1747 
Q 959 1119 1226 758 
Q 1494 397 1959 397 
Q 2419 397 2687 759 
Q 2956 1122 2956 1747 
Q 2956 2369 2687 2733 
Q 2419 3097 1959 3097 
z
M 1959 3584 
Q 2709 3584 3137 3096 
Q 3566 2609 3566 1747 
Q 3566 888 3137 398 
Q 2709 -91 1959 -91 
Q 1206 -91 779 398 
Q 353 888 353 1747 
Q 353 2609 779 3096 
Q 1206 3584 1959 3584 
z
" transform="scale(0.015625)" />
                            <path id="DejaVuSans-6c" d="M 603 4863 
L 1178 4863 
L 1178 0 
L 603 0 
L 603 4863 
z
" transform="scale(0.015625)" />
                        </defs>
                        <use xlink:href="#DejaVuSans-45" />
                        <use xlink:href="#DejaVuSans-78" x="63.183594" />
                        <use xlink:href="#DejaVuSans-70" x="122.363281" />
                        <use xlink:href="#DejaVuSans-65" x="185.839844" />
                        <use xlink:href="#DejaVuSans-63" x="247.363281" />
                        <use xlink:href="#DejaVuSans-74" x="302.34375" />
                        <use xlink:href="#DejaVuSans-65" x="341.552734" />
                        <use xlink:href="#DejaVuSans-64" x="403.076172" />
                        <use xlink:href="#DejaVuSans-20" x="466.552734" />
                        <use xlink:href="#DejaVuSans-61" x="498.339844" />
                        <use xlink:href="#DejaVuSans-76" x="559.619141" />
                        <use xlink:href="#DejaVuSans-65" x="618.798828" />
                        <use xlink:href="#DejaVuSans-72" x="680.322266" />
                        <use xlink:href="#DejaVuSans-61" x="721.435547" />
                        <use xlink:href="#DejaVuSans-67" x="782.714844" />
                        <use xlink:href="#DejaVuSans-65" x="846.191406" />
                        <use xlink:href="#DejaVuSans-20" x="907.714844" />
                        <use xlink:href="#DejaVuSans-6f" x="939.501953" />
                        <use xlink:href="#DejaVuSans-76" x="1000.683594" />
                        <use xlink:href="#DejaVuSans-65" x="1059.863281" />
                        <use xlink:href="#DejaVuSans-72" x="1121.386719" />
                        <use xlink:href="#DejaVuSans-6c" x="1162.5" />
                        <use xlink:href="#DejaVuSans-61" x="1190.283203" />
                        <use xlink:href="#DejaVuSans-70" x="1251.5625" />
                    </g>
                </g>
            </g>
            <g id="line2d_15">
                <path d="M 66.690341 370.999219 
L 67.298009 191.737357 
L 67.905677 191.85127 
L 68.513345 192.726339 
L 69.121014 193.942918 
L 70.944018 196.338342 
L 73.374691 199.386379 
L 75.197696 202.089417 
L 77.628368 205.291814 
L 79.451373 207.364098 
L 80.666709 208.930755 
L 84.920387 213.299703 
L 88.566396 216.82557 
L 90.997069 219.01198 
L 91.604737 220.100114 
L 97.073751 224.578541 
L 98.289087 225.830242 
L 102.542764 228.955697 
L 105.581105 231.0447 
L 112.873124 235.235734 
L 115.303796 236.65018 
L 115.911465 237.22572 
L 125.026488 242.014134 
L 126.241824 242.704189 
L 126.849492 242.99806 
L 127.45716 243.728798 
L 128.064828 245.295124 
L 140.825861 251.160455 
L 151.15622 254.905321 
L 151.763888 255.11426 
L 152.371556 255.487472 
L 157.84057 257.438443 
L 158.448238 257.890023 
L 165.740257 260.043457 
L 166.347925 260.463688 
L 172.424607 262.02474 
L 173.032275 262.391475 
L 182.147298 264.651538 
L 183.362634 265.079884 
L 188.22398 266.264921 
L 188.831648 267.28892 
L 194.90833 268.639229 
L 195.515998 269.063454 
L 197.339003 269.455898 
L 197.946671 269.721969 
L 212.530707 272.742708 
L 213.746044 273.259084 
L 216.784385 273.837803 
L 217.392053 274.074287 
L 218.607389 274.299213 
L 219.215058 275.156911 
L 226.507076 276.456869 
L 227.114744 276.897546 
L 227.722412 276.993777 
L 228.33008 277.262063 
L 243.521785 279.57327 
L 245.34479 279.772932 
L 248.990799 280.280669 
L 249.598467 280.780864 
L 253.244476 281.32094 
L 253.852145 281.769591 
L 257.498154 282.274194 
L 258.105822 283.081672 
L 258.71349 283.337064 
L 273.297527 285.285916 
L 273.905195 286.057554 
L 276.335868 286.365479 
L 276.943536 286.938275 
L 279.374209 287.281751 
L 279.981877 287.636234 
L 283.020218 288.029066 
L 283.627886 288.232881 
L 287.881563 288.850994 
L 288.489232 289.298472 
L 289.704568 289.774816 
L 304.288605 291.420802 
L 304.896273 291.99205 
L 309.757618 292.514087 
L 310.365287 293.660858 
L 313.403628 293.98903 
L 314.011296 294.188966 
L 319.48031 294.868505 
L 320.087978 295.067071 
L 334.672014 296.510231 
L 335.279683 297.079524 
L 340.141028 297.525338 
L 340.748696 298.931634 
L 346.21771 299.504269 
L 347.433046 299.721624 
L 349.863719 299.943789 
L 351.079056 300.166208 
L 365.055424 301.424352 
L 365.663092 302.040929 
L 370.524438 302.464662 
L 371.132106 303.755169 
L 374.778115 304.163348 
L 375.385783 304.695895 
L 380.247129 305.218687 
L 380.854797 305.497293 
L 395.438834 306.709179 
L 396.046502 307.366509 
L 400.907848 307.761922 
L 401.515516 309.226429 
L 406.984529 309.663629 
L 407.592198 309.859816 
L 410.630539 310.091343 
L 411.238207 310.61647 
L 425.822243 311.689235 
L 426.429912 312.268871 
L 431.291257 312.61617 
L 431.898925 314.404719 
L 433.114262 314.493401 
L 433.72193 314.741063 
L 437.367939 315.002632 
L 437.975607 315.275934 
L 456.205653 316.510155 
L 456.813321 317.351642 
L 461.674667 317.670494 
L 462.282335 318.848236 
L 467.751349 319.216358 
L 468.359017 319.751258 
L 486.589063 320.927362 
L 487.196731 321.664637 
L 492.058077 321.974423 
L 492.665745 322.391821 
L 516.972473 323.948907 
L 517.580141 325.339756 
L 522.441486 325.63536 
L 523.049155 326.453111 
L 524.872159 326.5623 
L 524.872159 326.5623 
" clip-path="url(#pb39392994d)" style="fill: none; stroke: #5254a3; stroke-linecap: square" />
            </g>
            <g id="line2d_16">
                <path d="M 66.690341 370.999219 
L 67.298009 191.732557 
L 67.905677 191.8373 
L 68.513345 192.782864 
L 69.121014 194.09407 
L 70.944018 196.746437 
L 71.551686 197.47575 
L 72.159355 198.010868 
L 73.982359 200.584485 
L 75.805364 203.241594 
L 76.413032 204.09833 
L 80.666709 208.598075 
L 87.35106 214.994942 
L 89.174064 216.847467 
L 90.997069 218.5653 
L 91.604737 219.652723 
L 94.643078 222.295536 
L 97.073751 224.455651 
L 97.681419 225.264236 
L 99.504423 226.909042 
L 101.327428 228.277322 
L 107.40411 232.306025 
L 108.619446 232.897814 
L 112.873124 235.301217 
L 115.303796 236.666794 
L 115.911465 237.24427 
L 118.949806 238.85065 
L 120.165142 239.411427 
L 126.849492 242.92711 
L 127.45716 243.964611 
L 128.064828 245.510006 
L 135.356847 248.887809 
L 136.572183 249.491869 
L 137.78752 249.959992 
L 138.395188 250.339151 
L 157.84057 257.511302 
L 158.448238 258.17586 
L 162.701916 259.44095 
L 165.740257 260.322656 
L 166.347925 260.74456 
L 172.424607 262.31352 
L 173.032275 262.684984 
L 182.147298 264.942769 
L 182.754966 265.329056 
L 185.185639 265.922569 
L 188.22398 266.670565 
L 188.831648 267.871943 
L 194.90833 269.191199 
L 195.515998 269.621728 
L 197.339003 269.998602 
L 197.946671 270.26147 
L 202.200348 271.107866 
L 202.808016 271.406844 
L 212.530707 273.397261 
L 213.746044 273.905864 
L 216.784385 274.461963 
L 217.392053 274.700118 
L 218.607389 274.919808 
L 219.215058 275.771186 
L 226.507076 277.027573 
L 227.114744 277.467365 
L 227.722412 277.561238 
L 228.33008 277.826339 
L 242.914117 280.002088 
L 243.521785 280.45839 
L 245.952458 280.740621 
L 248.990799 281.161308 
L 249.598467 281.667287 
L 253.244476 282.173082 
L 253.852145 282.620618 
L 257.498154 283.120734 
L 258.105822 283.611909 
L 258.71349 283.870463 
L 273.297527 285.753037 
L 273.905195 286.06266 
L 276.335868 286.361004 
L 276.943536 286.934089 
L 279.374209 287.269172 
L 279.981877 287.622481 
L 283.020218 288.018453 
L 283.627886 288.216574 
L 287.881563 288.831925 
L 289.0969 289.691403 
L 289.704568 289.908945 
L 304.288605 291.566172 
L 304.896273 292.142218 
L 309.757618 292.665017 
L 310.365287 293.82012 
L 313.403628 294.146554 
L 314.011296 294.351929 
L 314.618964 294.734631 
L 319.48031 295.354898 
L 320.087978 295.556938 
L 334.672014 297.015536 
L 335.279683 297.590663 
L 340.141028 298.046582 
L 340.748696 299.482077 
L 346.21771 300.057044 
L 347.433046 300.272013 
L 349.863719 300.496071 
L 350.471387 300.668718 
L 365.055424 301.956699 
L 365.663092 302.577371 
L 370.524438 303.00011 
L 371.132106 304.496413 
L 374.778115 304.900927 
L 375.385783 305.436004 
L 380.247129 305.958853 
L 380.854797 306.243044 
L 395.438834 307.358686 
L 396.046502 308.018695 
L 400.907848 308.391612 
L 401.515516 309.863627 
L 406.984529 310.278818 
L 407.592198 310.47287 
L 410.630539 310.689185 
L 411.238207 311.224715 
L 425.822243 312.222279 
L 426.429912 312.8002 
L 431.291257 313.134368 
L 431.898925 314.949135 
L 433.114262 315.03383 
L 433.72193 315.284215 
L 437.367939 315.539738 
L 437.975607 315.818631 
L 456.205653 317.045063 
L 456.813321 317.895107 
L 461.674667 318.201449 
L 462.282335 319.39565 
L 467.751349 319.75734 
L 468.359017 320.300137 
L 486.589063 321.44379 
L 487.196731 322.189283 
L 516.972473 324.000827 
L 517.580141 325.394645 
L 522.441486 325.674314 
L 523.049155 326.501904 
L 524.872159 326.606208 
L 524.872159 326.606208 
" clip-path="url(#pb39392994d)" style="fill: none; stroke: #ed3e1f; stroke-linecap: square" />
            </g>
            <g id="patch_3">
                <path d="M 43.78125 370.999219 
L 43.78125 10.999219 
" style="
                    fill: none;
                    stroke: #000000;
                    stroke-width: 0.8;
                    stroke-linejoin: miter;
                    stroke-linecap: square;
                  " />
            </g>
            <g id="patch_4">
                <path d="M 547.78125 370.999219 
L 547.78125 10.999219 
" style="
                    fill: none;
                    stroke: #000000;
                    stroke-width: 0.8;
                    stroke-linejoin: miter;
                    stroke-linecap: square;
                  " />
            </g>
            <g id="patch_5">
                <path d="M 43.78125 370.999219 
L 547.78125 370.999219 
" style="
                    fill: none;
                    stroke: #000000;
                    stroke-width: 0.8;
                    stroke-linejoin: miter;
                    stroke-linecap: square;
                  " />
            </g>
            <g id="patch_6">
                <path d="M 43.78125 10.999219 
L 547.78125 10.999219 
" style="
                    fill: none;
                    stroke: #000000;
                    stroke-width: 0.8;
                    stroke-linejoin: miter;
                    stroke-linecap: square;
                  " />
            </g>
        </g>
    </g>
    <defs>
        <clipPath id="pb39392994d">
            <rect x="43.78125" y="10.999219" width="504" height="360" />
        </clipPath>
    </defs>
</svg>