<svg xmlns:xlink="http://www.w3.org/1999/xlink" width="554.98125pt" height="408.555469pt"
    viewBox="0 0 554.98125 408.555469" xmlns="http://www.w3.org/2000/svg" version="1.1">
    <metadata>
        <rdf:RDF xmlns:dc="http://purl.org/dc/elements/1.1/" xmlns:cc="http://creativecommons.org/ns#"
            xmlns:rdf="http://www.w3.org/1999/02/22-rdf-syntax-ns#">
            <cc:Work>
                <dc:type rdf:resource="http://purl.org/dc/dcmitype/StillImage" />
                <dc:date>2023-02-20T20:11:13.029165</dc:date>
                <dc:format>image/svg+xml</dc:format>
                <dc:creator>
                    <cc:Agent>
                        <dc:title>Matplotlib v3.7.0, https://matplotlib.org/</dc:title>
                    </cc:Agent>
                </dc:creator>
            </cc:Work>
        </rdf:RDF>
    </metadata>
    <defs>
        <style type="text/css">
            * {
                stroke-linejoin: round;
                stroke-linecap: butt;
            }
        </style>
    </defs>
    <g id="figure_1">
        <g id="patch_1">
            <path d="M 0 408.555469 
L 554.98125 408.555469 
L 554.98125 0 
L 0 0 
L 0 408.555469 
z
" style="fill: none" />
        </g>
        <g id="axes_1">
            <g id="patch_2">
                <path d="M 43.78125 370.999219 
L 547.78125 370.999219 
L 547.78125 10.999219 
L 43.78125 10.999219 
L 43.78125 370.999219 
z
" style="fill: none" />
            </g>
            <g id="matplotlib.axis_1">
                <g id="xtick_1">
                    <g id="line2d_1">
                        <defs>
                            <path id="m4891c4d36c" d="M 0 0 
L 0 3.5 
" style="stroke: #000000; stroke-width: 0.8" />
                        </defs>
                        <g>
                            <use xlink:href="#m4891c4d36c" x="66.690341" y="370.999219"
                                style="stroke: #000000; stroke-width: 0.8" />
                        </g>
                    </g>
                    <g id="text_1">
                        <!-- 0 -->
                        <g transform="translate(63.509091 385.597656) scale(0.1 -0.1)">
                            <defs>
                                <path id="DejaVuSans-30" d="M 2034 4250 
Q 1547 4250 1301 3770 
Q 1056 3291 1056 2328 
Q 1056 1369 1301 889 
Q 1547 409 2034 409 
Q 2525 409 2770 889 
Q 3016 1369 3016 2328 
Q 3016 3291 2770 3770 
Q 2525 4250 2034 4250 
z
M 2034 4750 
Q 2819 4750 3233 4129 
Q 3647 3509 3647 2328 
Q 3647 1150 3233 529 
Q 2819 -91 2034 -91 
Q 1250 -91 836 529 
Q 422 1150 422 2328 
Q 422 3509 836 4129 
Q 1250 4750 2034 4750 
z
" transform="scale(0.015625)" />
                            </defs>
                            <use xlink:href="#DejaVuSans-30" />
                        </g>
                    </g>
                </g>
                <g id="xtick_2">
                    <g id="line2d_2">
                        <g>
                            <use xlink:href="#m4891c4d36c" x="127.45716" y="370.999219"
                                style="stroke: #000000; stroke-width: 0.8" />
                        </g>
                    </g>
                    <g id="text_2">
                        <!-- 100 -->
                        <g transform="translate(117.91341 385.597656) scale(0.1 -0.1)">
                            <defs>
                                <path id="DejaVuSans-31" d="M 794 531 
L 1825 531 
L 1825 4091 
L 703 3866 
L 703 4441 
L 1819 4666 
L 2450 4666 
L 2450 531 
L 3481 531 
L 3481 0 
L 794 0 
L 794 531 
z
" transform="scale(0.015625)" />
                            </defs>
                            <use xlink:href="#DejaVuSans-31" />
                            <use xlink:href="#DejaVuSans-30" x="63.623047" />
                            <use xlink:href="#DejaVuSans-30" x="127.246094" />
                        </g>
                    </g>
                </g>
                <g id="xtick_3">
                    <g id="line2d_3">
                        <g>
                            <use xlink:href="#m4891c4d36c" x="188.22398" y="370.999219"
                                style="stroke: #000000; stroke-width: 0.8" />
                        </g>
                    </g>
                    <g id="text_3">
                        <!-- 200 -->
                        <g transform="translate(178.68023 385.597656) scale(0.1 -0.1)">
                            <defs>
                                <path id="DejaVuSans-32" d="M 1228 531 
L 3431 531 
L 3431 0 
L 469 0 
L 469 531 
Q 828 903 1448 1529 
Q 2069 2156 2228 2338 
Q 2531 2678 2651 2914 
Q 2772 3150 2772 3378 
Q 2772 3750 2511 3984 
Q 2250 4219 1831 4219 
Q 1534 4219 1204 4116 
Q 875 4013 500 3803 
L 500 4441 
Q 881 4594 1212 4672 
Q 1544 4750 1819 4750 
Q 2544 4750 2975 4387 
Q 3406 4025 3406 3419 
Q 3406 3131 3298 2873 
Q 3191 2616 2906 2266 
Q 2828 2175 2409 1742 
Q 1991 1309 1228 531 
z
" transform="scale(0.015625)" />
                            </defs>
                            <use xlink:href="#DejaVuSans-32" />
                            <use xlink:href="#DejaVuSans-30" x="63.623047" />
                            <use xlink:href="#DejaVuSans-30" x="127.246094" />
                        </g>
                    </g>
                </g>
                <g id="xtick_4">
                    <g id="line2d_4">
                        <g>
                            <use xlink:href="#m4891c4d36c" x="248.990799" y="370.999219"
                                style="stroke: #000000; stroke-width: 0.8" />
                        </g>
                    </g>
                    <g id="text_4">
                        <!-- 300 -->
                        <g transform="translate(239.447049 385.597656) scale(0.1 -0.1)">
                            <defs>
                                <path id="DejaVuSans-33" d="M 2597 2516 
Q 3050 2419 3304 2112 
Q 3559 1806 3559 1356 
Q 3559 666 3084 287 
Q 2609 -91 1734 -91 
Q 1441 -91 1130 -33 
Q 819 25 488 141 
L 488 750 
Q 750 597 1062 519 
Q 1375 441 1716 441 
Q 2309 441 2620 675 
Q 2931 909 2931 1356 
Q 2931 1769 2642 2001 
Q 2353 2234 1838 2234 
L 1294 2234 
L 1294 2753 
L 1863 2753 
Q 2328 2753 2575 2939 
Q 2822 3125 2822 3475 
Q 2822 3834 2567 4026 
Q 2313 4219 1838 4219 
Q 1578 4219 1281 4162 
Q 984 4106 628 3988 
L 628 4550 
Q 988 4650 1302 4700 
Q 1616 4750 1894 4750 
Q 2613 4750 3031 4423 
Q 3450 4097 3450 3541 
Q 3450 3153 3228 2886 
Q 3006 2619 2597 2516 
z
" transform="scale(0.015625)" />
                            </defs>
                            <use xlink:href="#DejaVuSans-33" />
                            <use xlink:href="#DejaVuSans-30" x="63.623047" />
                            <use xlink:href="#DejaVuSans-30" x="127.246094" />
                        </g>
                    </g>
                </g>
                <g id="xtick_5">
                    <g id="line2d_5">
                        <g>
                            <use xlink:href="#m4891c4d36c" x="309.757618" y="370.999219"
                                style="stroke: #000000; stroke-width: 0.8" />
                        </g>
                    </g>
                    <g id="text_5">
                        <!-- 400 -->
                        <g transform="translate(300.213868 385.597656) scale(0.1 -0.1)">
                            <defs>
                                <path id="DejaVuSans-34" d="M 2419 4116 
L 825 1625 
L 2419 1625 
L 2419 4116 
z
M 2253 4666 
L 3047 4666 
L 3047 1625 
L 3713 1625 
L 3713 1100 
L 3047 1100 
L 3047 0 
L 2419 0 
L 2419 1100 
L 313 1100 
L 313 1709 
L 2253 4666 
z
" transform="scale(0.015625)" />
                            </defs>
                            <use xlink:href="#DejaVuSans-34" />
                            <use xlink:href="#DejaVuSans-30" x="63.623047" />
                            <use xlink:href="#DejaVuSans-30" x="127.246094" />
                        </g>
                    </g>
                </g>
                <g id="xtick_6">
                    <g id="line2d_6">
                        <g>
                            <use xlink:href="#m4891c4d36c" x="370.524438" y="370.999219"
                                style="stroke: #000000; stroke-width: 0.8" />
                        </g>
                    </g>
                    <g id="text_6">
                        <!-- 500 -->
                        <g transform="translate(360.980688 385.597656) scale(0.1 -0.1)">
                            <defs>
                                <path id="DejaVuSans-35" d="M 691 4666 
L 3169 4666 
L 3169 4134 
L 1269 4134 
L 1269 2991 
Q 1406 3038 1543 3061 
Q 1681 3084 1819 3084 
Q 2600 3084 3056 2656 
Q 3513 2228 3513 1497 
Q 3513 744 3044 326 
Q 2575 -91 1722 -91 
Q 1428 -91 1123 -41 
Q 819 9 494 109 
L 494 744 
Q 775 591 1075 516 
Q 1375 441 1709 441 
Q 2250 441 2565 725 
Q 2881 1009 2881 1497 
Q 2881 1984 2565 2268 
Q 2250 2553 1709 2553 
Q 1456 2553 1204 2497 
Q 953 2441 691 2322 
L 691 4666 
z
" transform="scale(0.015625)" />
                            </defs>
                            <use xlink:href="#DejaVuSans-35" />
                            <use xlink:href="#DejaVuSans-30" x="63.623047" />
                            <use xlink:href="#DejaVuSans-30" x="127.246094" />
                        </g>
                    </g>
                </g>
                <g id="xtick_7">
                    <g id="line2d_7">
                        <g>
                            <use xlink:href="#m4891c4d36c" x="431.291257" y="370.999219"
                                style="stroke: #000000; stroke-width: 0.8" />
                        </g>
                    </g>
                    <g id="text_7">
                        <!-- 600 -->
                        <g transform="translate(421.747507 385.597656) scale(0.1 -0.1)">
                            <defs>
                                <path id="DejaVuSans-36" d="M 2113 2584 
Q 1688 2584 1439 2293 
Q 1191 2003 1191 1497 
Q 1191 994 1439 701 
Q 1688 409 2113 409 
Q 2538 409 2786 701 
Q 3034 994 3034 1497 
Q 3034 2003 2786 2293 
Q 2538 2584 2113 2584 
z
M 3366 4563 
L 3366 3988 
Q 3128 4100 2886 4159 
Q 2644 4219 2406 4219 
Q 1781 4219 1451 3797 
Q 1122 3375 1075 2522 
Q 1259 2794 1537 2939 
Q 1816 3084 2150 3084 
Q 2853 3084 3261 2657 
Q 3669 2231 3669 1497 
Q 3669 778 3244 343 
Q 2819 -91 2113 -91 
Q 1303 -91 875 529 
Q 447 1150 447 2328 
Q 447 3434 972 4092 
Q 1497 4750 2381 4750 
Q 2619 4750 2861 4703 
Q 3103 4656 3366 4563 
z
" transform="scale(0.015625)" />
                            </defs>
                            <use xlink:href="#DejaVuSans-36" />
                            <use xlink:href="#DejaVuSans-30" x="63.623047" />
                            <use xlink:href="#DejaVuSans-30" x="127.246094" />
                        </g>
                    </g>
                </g>
                <g id="xtick_8">
                    <g id="line2d_8">
                        <g>
                            <use xlink:href="#m4891c4d36c" x="492.058077" y="370.999219"
                                style="stroke: #000000; stroke-width: 0.8" />
                        </g>
                    </g>
                    <g id="text_8">
                        <!-- 700 -->
                        <g transform="translate(482.514327 385.597656) scale(0.1 -0.1)">
                            <defs>
                                <path id="DejaVuSans-37" d="M 525 4666 
L 3525 4666 
L 3525 4397 
L 1831 0 
L 1172 0 
L 2766 4134 
L 525 4134 
L 525 4666 
z
" transform="scale(0.015625)" />
                            </defs>
                            <use xlink:href="#DejaVuSans-37" />
                            <use xlink:href="#DejaVuSans-30" x="63.623047" />
                            <use xlink:href="#DejaVuSans-30" x="127.246094" />
                        </g>
                    </g>
                </g>
                <g id="text_9">
                    <!-- frames -->
                    <g transform="translate(278.35 399.275781) scale(0.1 -0.1)">
                        <defs>
                            <path id="DejaVuSans-66" d="M 2375 4863 
L 2375 4384 
L 1825 4384 
Q 1516 4384 1395 4259 
Q 1275 4134 1275 3809 
L 1275 3500 
L 2222 3500 
L 2222 3053 
L 1275 3053 
L 1275 0 
L 697 0 
L 697 3053 
L 147 3053 
L 147 3500 
L 697 3500 
L 697 3744 
Q 697 4328 969 4595 
Q 1241 4863 1831 4863 
L 2375 4863 
z
" transform="scale(0.015625)" />
                            <path id="DejaVuSans-72" d="M 2631 2963 
Q 2534 3019 2420 3045 
Q 2306 3072 2169 3072 
Q 1681 3072 1420 2755 
Q 1159 2438 1159 1844 
L 1159 0 
L 581 0 
L 581 3500 
L 1159 3500 
L 1159 2956 
Q 1341 3275 1631 3429 
Q 1922 3584 2338 3584 
Q 2397 3584 2469 3576 
Q 2541 3569 2628 3553 
L 2631 2963 
z
" transform="scale(0.015625)" />
                            <path id="DejaVuSans-61" d="M 2194 1759 
Q 1497 1759 1228 1600 
Q 959 1441 959 1056 
Q 959 750 1161 570 
Q 1363 391 1709 391 
Q 2188 391 2477 730 
Q 2766 1069 2766 1631 
L 2766 1759 
L 2194 1759 
z
M 3341 1997 
L 3341 0 
L 2766 0 
L 2766 531 
Q 2569 213 2275 61 
Q 1981 -91 1556 -91 
Q 1019 -91 701 211 
Q 384 513 384 1019 
Q 384 1609 779 1909 
Q 1175 2209 1959 2209 
L 2766 2209 
L 2766 2266 
Q 2766 2663 2505 2880 
Q 2244 3097 1772 3097 
Q 1472 3097 1187 3025 
Q 903 2953 641 2809 
L 641 3341 
Q 956 3463 1253 3523 
Q 1550 3584 1831 3584 
Q 2591 3584 2966 3190 
Q 3341 2797 3341 1997 
z
" transform="scale(0.015625)" />
                            <path id="DejaVuSans-6d" d="M 3328 2828 
Q 3544 3216 3844 3400 
Q 4144 3584 4550 3584 
Q 5097 3584 5394 3201 
Q 5691 2819 5691 2113 
L 5691 0 
L 5113 0 
L 5113 2094 
Q 5113 2597 4934 2840 
Q 4756 3084 4391 3084 
Q 3944 3084 3684 2787 
Q 3425 2491 3425 1978 
L 3425 0 
L 2847 0 
L 2847 2094 
Q 2847 2600 2669 2842 
Q 2491 3084 2119 3084 
Q 1678 3084 1418 2786 
Q 1159 2488 1159 1978 
L 1159 0 
L 581 0 
L 581 3500 
L 1159 3500 
L 1159 2956 
Q 1356 3278 1631 3431 
Q 1906 3584 2284 3584 
Q 2666 3584 2933 3390 
Q 3200 3197 3328 2828 
z
" transform="scale(0.015625)" />
                            <path id="DejaVuSans-65" d="M 3597 1894 
L 3597 1613 
L 953 1613 
Q 991 1019 1311 708 
Q 1631 397 2203 397 
Q 2534 397 2845 478 
Q 3156 559 3463 722 
L 3463 178 
Q 3153 47 2828 -22 
Q 2503 -91 2169 -91 
Q 1331 -91 842 396 
Q 353 884 353 1716 
Q 353 2575 817 3079 
Q 1281 3584 2069 3584 
Q 2775 3584 3186 3129 
Q 3597 2675 3597 1894 
z
M 3022 2063 
Q 3016 2534 2758 2815 
Q 2500 3097 2075 3097 
Q 1594 3097 1305 2825 
Q 1016 2553 972 2059 
L 3022 2063 
z
" transform="scale(0.015625)" />
                            <path id="DejaVuSans-73" d="M 2834 3397 
L 2834 2853 
Q 2591 2978 2328 3040 
Q 2066 3103 1784 3103 
Q 1356 3103 1142 2972 
Q 928 2841 928 2578 
Q 928 2378 1081 2264 
Q 1234 2150 1697 2047 
L 1894 2003 
Q 2506 1872 2764 1633 
Q 3022 1394 3022 966 
Q 3022 478 2636 193 
Q 2250 -91 1575 -91 
Q 1294 -91 989 -36 
Q 684 19 347 128 
L 347 722 
Q 666 556 975 473 
Q 1284 391 1588 391 
Q 1994 391 2212 530 
Q 2431 669 2431 922 
Q 2431 1156 2273 1281 
Q 2116 1406 1581 1522 
L 1381 1569 
Q 847 1681 609 1914 
Q 372 2147 372 2553 
Q 372 3047 722 3315 
Q 1072 3584 1716 3584 
Q 2034 3584 2315 3537 
Q 2597 3491 2834 3397 
z
" transform="scale(0.015625)" />
                        </defs>
                        <use xlink:href="#DejaVuSans-66" />
                        <use xlink:href="#DejaVuSans-72" x="35.205078" />
                        <use xlink:href="#DejaVuSans-61" x="76.318359" />
                        <use xlink:href="#DejaVuSans-6d" x="137.597656" />
                        <use xlink:href="#DejaVuSans-65" x="235.009766" />
                        <use xlink:href="#DejaVuSans-73" x="296.533203" />
                    </g>
                </g>
            </g>
            <g id="matplotlib.axis_2">
                <g id="ytick_1">
                    <g id="line2d_9">
                        <defs>
                            <path id="mefd2261c74" d="M 0 0 
L -3.5 0 
" style="stroke: #000000; stroke-width: 0.8" />
                        </defs>
                        <g>
                            <use xlink:href="#mefd2261c74" x="43.78125" y="370.999219"
                                style="stroke: #000000; stroke-width: 0.8" />
                        </g>
                    </g>
                    <g id="text_10">
                        <!-- 0.0 -->
                        <g transform="translate(20.878125 374.798437) scale(0.1 -0.1)">
                            <defs>
                                <path id="DejaVuSans-2e" d="M 684 794 
L 1344 794 
L 1344 0 
L 684 0 
L 684 794 
z
" transform="scale(0.015625)" />
                            </defs>
                            <use xlink:href="#DejaVuSans-30" />
                            <use xlink:href="#DejaVuSans-2e" x="63.623047" />
                            <use xlink:href="#DejaVuSans-30" x="95.410156" />
                        </g>
                    </g>
                </g>
                <g id="ytick_2">
                    <g id="line2d_10">
                        <g>
                            <use xlink:href="#mefd2261c74" x="43.78125" y="298.999219"
                                style="stroke: #000000; stroke-width: 0.8" />
                        </g>
                    </g>
                    <g id="text_11">
                        <!-- 0.2 -->
                        <g transform="translate(20.878125 302.798437) scale(0.1 -0.1)">
                            <use xlink:href="#DejaVuSans-30" />
                            <use xlink:href="#DejaVuSans-2e" x="63.623047" />
                            <use xlink:href="#DejaVuSans-32" x="95.410156" />
                        </g>
                    </g>
                </g>
                <g id="ytick_3">
                    <g id="line2d_11">
                        <g>
                            <use xlink:href="#mefd2261c74" x="43.78125" y="226.999219"
                                style="stroke: #000000; stroke-width: 0.8" />
                        </g>
                    </g>
                    <g id="text_12">
                        <!-- 0.4 -->
                        <g transform="translate(20.878125 230.798437) scale(0.1 -0.1)">
                            <use xlink:href="#DejaVuSans-30" />
                            <use xlink:href="#DejaVuSans-2e" x="63.623047" />
                            <use xlink:href="#DejaVuSans-34" x="95.410156" />
                        </g>
                    </g>
                </g>
                <g id="ytick_4">
                    <g id="line2d_12">
                        <g>
                            <use xlink:href="#mefd2261c74" x="43.78125" y="154.999219"
                                style="stroke: #000000; stroke-width: 0.8" />
                        </g>
                    </g>
                    <g id="text_13">
                        <!-- 0.6 -->
                        <g transform="translate(20.878125 158.798437) scale(0.1 -0.1)">
                            <use xlink:href="#DejaVuSans-30" />
                            <use xlink:href="#DejaVuSans-2e" x="63.623047" />
                            <use xlink:href="#DejaVuSans-36" x="95.410156" />
                        </g>
                    </g>
                </g>
                <g id="ytick_5">
                    <g id="line2d_13">
                        <g>
                            <use xlink:href="#mefd2261c74" x="43.78125" y="82.999219"
                                style="stroke: #000000; stroke-width: 0.8" />
                        </g>
                    </g>
                    <g id="text_14">
                        <!-- 0.8 -->
                        <g transform="translate(20.878125 86.798438) scale(0.1 -0.1)">
                            <defs>
                                <path id="DejaVuSans-38" d="M 2034 2216 
Q 1584 2216 1326 1975 
Q 1069 1734 1069 1313 
Q 1069 891 1326 650 
Q 1584 409 2034 409 
Q 2484 409 2743 651 
Q 3003 894 3003 1313 
Q 3003 1734 2745 1975 
Q 2488 2216 2034 2216 
z
M 1403 2484 
Q 997 2584 770 2862 
Q 544 3141 544 3541 
Q 544 4100 942 4425 
Q 1341 4750 2034 4750 
Q 2731 4750 3128 4425 
Q 3525 4100 3525 3541 
Q 3525 3141 3298 2862 
Q 3072 2584 2669 2484 
Q 3125 2378 3379 2068 
Q 3634 1759 3634 1313 
Q 3634 634 3220 271 
Q 2806 -91 2034 -91 
Q 1263 -91 848 271 
Q 434 634 434 1313 
Q 434 1759 690 2068 
Q 947 2378 1403 2484 
z
M 1172 3481 
Q 1172 3119 1398 2916 
Q 1625 2713 2034 2713 
Q 2441 2713 2670 2916 
Q 2900 3119 2900 3481 
Q 2900 3844 2670 4047 
Q 2441 4250 2034 4250 
Q 1625 4250 1398 4047 
Q 1172 3844 1172 3481 
z
" transform="scale(0.015625)" />
                            </defs>
                            <use xlink:href="#DejaVuSans-30" />
                            <use xlink:href="#DejaVuSans-2e" x="63.623047" />
                            <use xlink:href="#DejaVuSans-38" x="95.410156" />
                        </g>
                    </g>
                </g>
                <g id="ytick_6">
                    <g id="line2d_14">
                        <g>
                            <use xlink:href="#mefd2261c74" x="43.78125" y="10.999219"
                                style="stroke: #000000; stroke-width: 0.8" />
                        </g>
                    </g>
                    <g id="text_15">
                        <!-- 1.0 -->
                        <g transform="translate(20.878125 14.798438) scale(0.1 -0.1)">
                            <use xlink:href="#DejaVuSans-31" />
                            <use xlink:href="#DejaVuSans-2e" x="63.623047" />
                            <use xlink:href="#DejaVuSans-30" x="95.410156" />
                        </g>
                    </g>
                </g>
                <g id="text_16">
                    <!-- Expected average overlap -->
                    <g transform="translate(14.798438 256.755469) rotate(-90) scale(0.1 -0.1)">
                        <defs>
                            <path id="DejaVuSans-45" d="M 628 4666 
L 3578 4666 
L 3578 4134 
L 1259 4134 
L 1259 2753 
L 3481 2753 
L 3481 2222 
L 1259 2222 
L 1259 531 
L 3634 531 
L 3634 0 
L 628 0 
L 628 4666 
z
" transform="scale(0.015625)" />
                            <path id="DejaVuSans-78" d="M 3513 3500 
L 2247 1797 
L 3578 0 
L 2900 0 
L 1881 1375 
L 863 0 
L 184 0 
L 1544 1831 
L 300 3500 
L 978 3500 
L 1906 2253 
L 2834 3500 
L 3513 3500 
z
" transform="scale(0.015625)" />
                            <path id="DejaVuSans-70" d="M 1159 525 
L 1159 -1331 
L 581 -1331 
L 581 3500 
L 1159 3500 
L 1159 2969 
Q 1341 3281 1617 3432 
Q 1894 3584 2278 3584 
Q 2916 3584 3314 3078 
Q 3713 2572 3713 1747 
Q 3713 922 3314 415 
Q 2916 -91 2278 -91 
Q 1894 -91 1617 61 
Q 1341 213 1159 525 
z
M 3116 1747 
Q 3116 2381 2855 2742 
Q 2594 3103 2138 3103 
Q 1681 3103 1420 2742 
Q 1159 2381 1159 1747 
Q 1159 1113 1420 752 
Q 1681 391 2138 391 
Q 2594 391 2855 752 
Q 3116 1113 3116 1747 
z
" transform="scale(0.015625)" />
                            <path id="DejaVuSans-63" d="M 3122 3366 
L 3122 2828 
Q 2878 2963 2633 3030 
Q 2388 3097 2138 3097 
Q 1578 3097 1268 2742 
Q 959 2388 959 1747 
Q 959 1106 1268 751 
Q 1578 397 2138 397 
Q 2388 397 2633 464 
Q 2878 531 3122 666 
L 3122 134 
Q 2881 22 2623 -34 
Q 2366 -91 2075 -91 
Q 1284 -91 818 406 
Q 353 903 353 1747 
Q 353 2603 823 3093 
Q 1294 3584 2113 3584 
Q 2378 3584 2631 3529 
Q 2884 3475 3122 3366 
z
" transform="scale(0.015625)" />
                            <path id="DejaVuSans-74" d="M 1172 4494 
L 1172 3500 
L 2356 3500 
L 2356 3053 
L 1172 3053 
L 1172 1153 
Q 1172 725 1289 603 
Q 1406 481 1766 481 
L 2356 481 
L 2356 0 
L 1766 0 
Q 1100 0 847 248 
Q 594 497 594 1153 
L 594 3053 
L 172 3053 
L 172 3500 
L 594 3500 
L 594 4494 
L 1172 4494 
z
" transform="scale(0.015625)" />
                            <path id="DejaVuSans-64" d="M 2906 2969 
L 2906 4863 
L 3481 4863 
L 3481 0 
L 2906 0 
L 2906 525 
Q 2725 213 2448 61 
Q 2172 -91 1784 -91 
Q 1150 -91 751 415 
Q 353 922 353 1747 
Q 353 2572 751 3078 
Q 1150 3584 1784 3584 
Q 2172 3584 2448 3432 
Q 2725 3281 2906 2969 
z
M 947 1747 
Q 947 1113 1208 752 
Q 1469 391 1925 391 
Q 2381 391 2643 752 
Q 2906 1113 2906 1747 
Q 2906 2381 2643 2742 
Q 2381 3103 1925 3103 
Q 1469 3103 1208 2742 
Q 947 2381 947 1747 
z
" transform="scale(0.015625)" />
                            <path id="DejaVuSans-20" transform="scale(0.015625)" />
                            <path id="DejaVuSans-76" d="M 191 3500 
L 800 3500 
L 1894 563 
L 2988 3500 
L 3597 3500 
L 2284 0 
L 1503 0 
L 191 3500 
z
" transform="scale(0.015625)" />
                            <path id="DejaVuSans-67" d="M 2906 1791 
Q 2906 2416 2648 2759 
Q 2391 3103 1925 3103 
Q 1463 3103 1205 2759 
Q 947 2416 947 1791 
Q 947 1169 1205 825 
Q 1463 481 1925 481 
Q 2391 481 2648 825 
Q 2906 1169 2906 1791 
z
M 3481 434 
Q 3481 -459 3084 -895 
Q 2688 -1331 1869 -1331 
Q 1566 -1331 1297 -1286 
Q 1028 -1241 775 -1147 
L 775 -588 
Q 1028 -725 1275 -790 
Q 1522 -856 1778 -856 
Q 2344 -856 2625 -561 
Q 2906 -266 2906 331 
L 2906 616 
Q 2728 306 2450 153 
Q 2172 0 1784 0 
Q 1141 0 747 490 
Q 353 981 353 1791 
Q 353 2603 747 3093 
Q 1141 3584 1784 3584 
Q 2172 3584 2450 3431 
Q 2728 3278 2906 2969 
L 2906 3500 
L 3481 3500 
L 3481 434 
z
" transform="scale(0.015625)" />
                            <path id="DejaVuSans-6f" d="M 1959 3097 
Q 1497 3097 1228 2736 
Q 959 2375 959 1747 
Q 959 1119 1226 758 
Q 1494 397 1959 397 
Q 2419 397 2687 759 
Q 2956 1122 2956 1747 
Q 2956 2369 2687 2733 
Q 2419 3097 1959 3097 
z
M 1959 3584 
Q 2709 3584 3137 3096 
Q 3566 2609 3566 1747 
Q 3566 888 3137 398 
Q 2709 -91 1959 -91 
Q 1206 -91 779 398 
Q 353 888 353 1747 
Q 353 2609 779 3096 
Q 1206 3584 1959 3584 
z
" transform="scale(0.015625)" />
                            <path id="DejaVuSans-6c" d="M 603 4863 
L 1178 4863 
L 1178 0 
L 603 0 
L 603 4863 
z
" transform="scale(0.015625)" />
                        </defs>
                        <use xlink:href="#DejaVuSans-45" />
                        <use xlink:href="#DejaVuSans-78" x="63.183594" />
                        <use xlink:href="#DejaVuSans-70" x="122.363281" />
                        <use xlink:href="#DejaVuSans-65" x="185.839844" />
                        <use xlink:href="#DejaVuSans-63" x="247.363281" />
                        <use xlink:href="#DejaVuSans-74" x="302.34375" />
                        <use xlink:href="#DejaVuSans-65" x="341.552734" />
                        <use xlink:href="#DejaVuSans-64" x="403.076172" />
                        <use xlink:href="#DejaVuSans-20" x="466.552734" />
                        <use xlink:href="#DejaVuSans-61" x="498.339844" />
                        <use xlink:href="#DejaVuSans-76" x="559.619141" />
                        <use xlink:href="#DejaVuSans-65" x="618.798828" />
                        <use xlink:href="#DejaVuSans-72" x="680.322266" />
                        <use xlink:href="#DejaVuSans-61" x="721.435547" />
                        <use xlink:href="#DejaVuSans-67" x="782.714844" />
                        <use xlink:href="#DejaVuSans-65" x="846.191406" />
                        <use xlink:href="#DejaVuSans-20" x="907.714844" />
                        <use xlink:href="#DejaVuSans-6f" x="939.501953" />
                        <use xlink:href="#DejaVuSans-76" x="1000.683594" />
                        <use xlink:href="#DejaVuSans-65" x="1059.863281" />
                        <use xlink:href="#DejaVuSans-72" x="1121.386719" />
                        <use xlink:href="#DejaVuSans-6c" x="1162.5" />
                        <use xlink:href="#DejaVuSans-61" x="1190.283203" />
                        <use xlink:href="#DejaVuSans-70" x="1251.5625" />
                    </g>
                </g>
            </g>
            <g id="line2d_15">
                <path d="M 66.690341 370.999219 
L 67.298009 191.737357 
L 67.905677 191.85127 
L 68.513345 192.726339 
L 69.121014 193.942918 
L 70.944018 209.257321 
L 71.551686 212.580634 
L 72.767023 214.934008 
L 73.982359 219.007275 
L 74.590027 220.373293 
L 75.197696 221.050149 
L 76.413032 223.022112 
L 77.0207 224.155963 
L 78.843705 226.400126 
L 80.059041 228.230287 
L 80.666709 228.956281 
L 81.882046 229.893966 
L 83.70505 231.854596 
L 84.312719 232.28048 
L 85.528055 233.63451 
L 86.743391 234.805904 
L 87.958728 235.69107 
L 89.174064 236.871223 
L 91.604737 238.741174 
L 92.820073 239.664466 
L 94.643078 240.966192 
L 95.858414 241.84974 
L 97.073751 242.71503 
L 98.896755 244.034166 
L 107.40411 249.921646 
L 109.227114 250.963357 
L 113.480792 253.491389 
L 115.303796 254.514235 
L 115.911465 255.158236 
L 118.949806 256.785753 
L 123.203483 258.990538 
L 126.241824 260.419228 
L 126.849492 260.711933 
L 127.45716 261.147284 
L 128.064828 261.948978 
L 133.533842 264.349006 
L 137.179851 265.975632 
L 146.294874 269.141519 
L 151.15622 270.731445 
L 152.979224 271.533635 
L 157.84057 273.015155 
L 158.448238 273.506835 
L 165.132588 275.150165 
L 165.740257 275.298654 
L 166.347925 275.733758 
L 182.147298 279.199305 
L 182.754966 279.59722 
L 184.577971 280.033253 
L 188.22398 280.727755 
L 188.831648 281.933762 
L 194.90833 283.022322 
L 195.515998 283.397819 
L 197.339003 283.737575 
L 197.946671 284.00684 
L 211.923039 286.486445 
L 212.530707 286.777959 
L 213.138376 287.331317 
L 213.746044 287.58018 
L 218.607389 288.394995 
L 219.215058 289.307459 
L 226.507076 290.447769 
L 227.114744 290.849575 
L 227.722412 290.929891 
L 228.33008 291.211088 
L 243.521785 293.265309 
L 244.129454 293.592211 
L 248.990799 294.223287 
L 249.598467 294.769236 
L 253.244476 295.256112 
L 253.852145 295.675691 
L 257.498154 296.157459 
L 258.105822 296.6022 
L 259.321158 297.094157 
L 270.259186 298.479619 
L 273.297527 298.844798 
L 273.905195 299.191439 
L 276.335868 299.480916 
L 276.943536 299.995676 
L 279.374209 300.292652 
L 279.981877 300.633028 
L 283.020218 300.98692 
L 283.627886 301.212114 
L 287.881563 301.821077 
L 289.0969 302.499708 
L 289.704568 302.742988 
L 304.288605 304.250843 
L 304.896273 304.626403 
L 309.757618 305.151046 
L 310.365287 306.12879 
L 313.403628 306.428811 
L 314.011296 306.653202 
L 315.8343 306.825944 
L 316.441969 307.029789 
L 319.48031 307.326656 
L 320.087978 307.527078 
L 337.710355 309.106873 
L 340.141028 309.311066 
L 340.748696 310.605812 
L 346.21771 311.156273 
L 346.825378 311.340217 
L 349.863719 311.5935 
L 350.471387 311.776059 
L 365.055424 312.922274 
L 365.663092 313.338865 
L 370.524438 313.727166 
L 371.132106 314.798896 
L 374.170447 315.038129 
L 375.385783 315.251386 
L 376.60112 315.348897 
L 377.208788 315.536657 
L 380.247129 315.773003 
L 380.854797 316.058153 
L 395.438834 317.125527 
L 396.046502 317.556066 
L 400.907848 317.919865 
L 401.515516 319.088181 
L 406.984529 319.487665 
L 407.592198 319.703763 
L 410.630539 319.911687 
L 411.238207 320.44512 
L 425.822243 321.441692 
L 426.429912 321.858502 
L 431.291257 322.170751 
L 431.898925 323.551079 
L 433.114262 323.625987 
L 433.72193 323.888624 
L 437.367939 324.12592 
L 437.975607 324.415432 
L 456.205653 325.544356 
L 456.813321 326.054019 
L 461.674667 326.340249 
L 462.282335 327.234313 
L 467.751349 327.57324 
L 468.359017 328.13069 
L 486.589063 329.190324 
L 487.196731 329.665945 
L 492.058077 329.938231 
L 492.665745 330.320881 
L 516.972473 331.681616 
L 517.580141 332.629461 
L 518.187809 332.662024 
L 518.795477 333.124072 
L 522.441486 333.317551 
L 523.049155 333.721758 
L 524.872159 333.817305 
L 524.872159 333.817305 
" clip-path="url(#p58c82bcbdc)" style="fill: none; stroke: #5254a3; stroke-linecap: square" />
            </g>
            <g id="line2d_16">
                <path d="M 66.690341 370.999219 
L 67.298009 191.732557 
L 67.905677 191.8373 
L 68.513345 192.782864 
L 69.728682 195.249726 
L 70.33635 196.011701 
L 70.944018 197.101934 
L 72.767023 199.412797 
L 76.413032 205.003138 
L 77.628368 206.28131 
L 81.882046 210.725428 
L 83.70505 212.407541 
L 87.35106 215.908457 
L 89.174064 217.785338 
L 90.997069 219.528779 
L 91.604737 220.635475 
L 94.643078 223.315061 
L 97.073751 225.469971 
L 97.681419 226.287424 
L 99.504423 227.926246 
L 101.327428 229.293644 
L 108.011778 233.585432 
L 115.303796 237.708913 
L 115.911465 238.294129 
L 118.949806 239.879139 
L 120.165142 240.441724 
L 126.849492 243.915466 
L 127.45716 244.957044 
L 128.064828 246.523298 
L 135.356847 249.821626 
L 136.572183 250.415807 
L 137.78752 250.873894 
L 138.395188 251.250774 
L 151.763888 256.243576 
L 152.371556 256.617578 
L 157.84057 258.465008 
L 158.448238 259.096379 
L 163.309584 260.485198 
L 165.740257 261.181249 
L 166.347925 261.603025 
L 172.424607 263.144286 
L 173.032275 263.517669 
L 182.147298 265.785357 
L 182.754966 266.175335 
L 185.185639 266.768986 
L 188.22398 267.379056 
L 188.831648 268.588153 
L 194.90833 269.895378 
L 195.515998 270.325559 
L 197.339003 270.692856 
L 197.946671 270.955151 
L 202.200348 271.789376 
L 202.808016 272.087199 
L 212.530707 274.076201 
L 213.746044 274.590259 
L 218.607389 275.464758 
L 219.215058 276.317322 
L 226.507076 277.55905 
L 227.114744 277.998158 
L 227.722412 278.090523 
L 228.33008 278.355512 
L 242.914117 280.503072 
L 243.521785 280.958753 
L 245.952458 281.238355 
L 248.990799 281.654014 
L 249.598467 282.160735 
L 253.244476 282.660479 
L 253.852145 283.10742 
L 257.498154 283.601856 
L 258.105822 284.092314 
L 258.71349 284.350862 
L 273.297527 286.212467 
L 273.905195 286.521967 
L 276.335868 286.817095 
L 276.943536 287.389247 
L 279.374209 287.722409 
L 279.981877 288.078279 
L 283.020218 288.470249 
L 283.627886 288.668614 
L 287.881563 289.279699 
L 289.0969 290.139647 
L 289.704568 290.357394 
L 304.288605 291.997545 
L 304.896273 292.57267 
L 309.757618 293.090209 
L 310.365287 294.245275 
L 313.403628 294.568502 
L 314.011296 294.774161 
L 314.618964 295.156557 
L 319.48031 295.772761 
L 320.087978 295.975114 
L 334.672014 297.419507 
L 335.279683 297.993748 
L 340.141028 298.44518 
L 340.748696 299.880817 
L 346.21771 300.451997 
L 347.433046 300.666868 
L 349.863719 300.888756 
L 350.471387 301.06181 
L 365.055424 302.337703 
L 365.663092 302.957272 
L 370.524438 303.376102 
L 371.132106 304.872122 
L 374.778115 305.274775 
L 375.385783 305.809007 
L 380.247129 306.329053 
L 380.854797 306.613257 
L 395.438834 307.718504 
L 396.046502 308.377249 
L 400.907848 308.746903 
L 401.515516 310.217226 
L 406.984529 310.62869 
L 407.592198 310.823055 
L 410.630539 311.037348 
L 411.238207 311.573208 
L 425.822243 312.561512 
L 426.429912 313.138356 
L 431.291257 313.469578 
L 431.898925 315.281234 
L 433.114262 315.365187 
L 433.72193 315.615644 
L 437.367939 315.868962 
L 437.975607 316.147822 
L 456.205653 317.363768 
L 456.813321 318.211646 
L 461.674667 318.515306 
L 462.282335 319.707289 
L 467.751349 320.065754 
L 468.359017 320.608592 
L 486.589063 321.741978 
L 487.196731 322.485661 
L 516.972473 324.282464 
L 517.580141 325.673031 
L 522.441486 325.950548 
L 523.049155 326.776966 
L 524.872159 326.880429 
L 524.872159 326.880429 
" clip-path="url(#p58c82bcbdc)" style="fill: none; stroke: #ed3e1f; stroke-linecap: square" />
            </g>
            <g id="patch_3">
                <path d="M 43.78125 370.999219 
L 43.78125 10.999219 
" style="
                    fill: none;
                    stroke: #000000;
                    stroke-width: 0.8;
                    stroke-linejoin: miter;
                    stroke-linecap: square;
                  " />
            </g>
            <g id="patch_4">
                <path d="M 547.78125 370.999219 
L 547.78125 10.999219 
" style="
                    fill: none;
                    stroke: #000000;
                    stroke-width: 0.8;
                    stroke-linejoin: miter;
                    stroke-linecap: square;
                  " />
            </g>
            <g id="patch_5">
                <path d="M 43.78125 370.999219 
L 547.78125 370.999219 
" style="
                    fill: none;
                    stroke: #000000;
                    stroke-width: 0.8;
                    stroke-linejoin: miter;
                    stroke-linecap: square;
                  " />
            </g>
            <g id="patch_6">
                <path d="M 43.78125 10.999219 
L 547.78125 10.999219 
" style="
                    fill: none;
                    stroke: #000000;
                    stroke-width: 0.8;
                    stroke-linejoin: miter;
                    stroke-linecap: square;
                  " />
            </g>
        </g>
    </g>
    <defs>
        <clipPath id="p58c82bcbdc">
            <rect x="43.78125" y="10.999219" width="504" height="360" />
        </clipPath>
    </defs>
</svg>